<svg width="82" height="35" viewBox="0 0 82 35" fill="none" xmlns="http://www.w3.org/2000/svg">
<path d="M66.2994 0.0421104C62.0647 0.0421104 58.798 1.78375 56.5852 3.48893C58.5303 5.87059 59.9179 8.84724 60.6367 12.2959C61.621 11.5239 62.8254 11.0556 64.0922 11.0556C67.9948 11.0556 69.7768 14.0417 69.7768 17.4556V33.3776C69.7768 34.2348 70.4589 34.9996 71.3937 34.9996H80.3908C81.3221 34.9996 82.0001 34.2348 82.0001 33.3776V17.9698C82.0001 8.24446 76.8291 0.0421104 66.2994 0.0421104Z" fill="#78BE21"/>
<path d="M0 2.47917C0 1.54447 0.682112 0.857113 1.62068 0.857113H5.52149C6.1171 0.857113 6.71122 1.28479 6.96426 1.79521L8.40517 5.29366C10.5296 3.07466 14.4289 0 19.8677 0C24.6195 0 27.9266 1.79521 30.9877 5.20557C32.9439 3.24207 36.9307 0 42.7091 0C53.2335 0 58.4048 8.2008 58.4048 17.9238V33.378C58.4048 34.2351 57.7265 35 56.8008 35H47.8033C46.8705 35 46.1846 34.2351 46.1846 33.378V17.4153C46.1846 14.0015 44.4067 11.0153 40.4947 11.0153C37.5287 11.0153 34.8081 13.4911 34.8081 16.8217V33.378C34.8081 34.2351 34.1317 35 33.1969 35H25.0501C24.119 35 23.4317 34.2351 23.4317 33.378V17.4153C23.4317 14.0015 21.9062 11.0153 18.0843 11.0153C14.6892 11.0153 12.1447 13.4911 12.1447 16.9877V33.378C12.1447 34.2351 11.3802 35 10.5296 35H1.62068C0.682112 35 0 34.2351 0 33.378V2.47917Z" fill="white"/>
</svg>
