<svg width="204" height="40" viewBox="0 0 204 40" fill="none" xmlns="http://www.w3.org/2000/svg">
<path d="M67.0083 8.45667C67.0265 8.27652 67.2021 8.13537 67.3648 8.13537H67.6782C67.7763 8.13537 67.9571 8.21426 68.0145 8.33839L72.6125 17.0505H72.6532L77.2549 8.33839C77.3123 8.21426 77.4932 8.13537 77.5927 8.13537H77.9067C78.0655 8.13537 78.2464 8.27652 78.2651 8.45667L80.5049 22.0145C80.5436 22.274 80.3666 22.4561 80.1283 22.4561H77.7885C77.6076 22.4561 77.4339 22.2945 77.41 22.1328L76.5181 15.8992H76.4831L73.1498 22.4352C73.0929 22.5559 72.9116 22.659 72.8158 22.659H72.4574C72.3392 22.659 72.1805 22.5559 72.1234 22.4352L68.7677 15.8992H68.729L67.8557 22.1328C67.8337 22.2945 67.6782 22.4561 67.481 22.4561H65.1431C64.9048 22.4561 64.7258 22.274 64.7646 22.0145L67.0083 8.45667Z" fill="white"/>
<path d="M85.8203 8.71917C85.8203 8.52011 85.9978 8.33758 86.1954 8.33758H88.5755C88.775 8.33758 88.954 8.52011 88.954 8.71917V22.0721C88.954 22.2752 88.775 22.4572 88.5755 22.4572H86.1954C85.9978 22.4572 85.8203 22.2752 85.8203 22.0721V8.71917Z" fill="white"/>
<path d="M94.9561 8.49685C94.9561 8.29423 95.1369 8.13615 95.3346 8.13615H95.8294L103.739 15.8809H103.76V8.71878C103.76 8.51972 103.916 8.33917 104.14 8.33917H106.515C106.714 8.33917 106.891 8.51972 106.891 8.71878V22.2952C106.891 22.4963 106.714 22.6579 106.515 22.6579H106.194C106.137 22.6579 105.978 22.5975 105.938 22.5547L98.1079 14.5505H98.0894V22.0736C98.0894 22.2748 97.9308 22.4569 97.7109 22.4569H95.3532C95.1536 22.4569 94.9781 22.2748 94.9781 22.0736L94.9561 8.49685Z" fill="white"/>
<path d="M112.733 8.49685C112.733 8.29423 112.918 8.13615 113.111 8.13615H113.607L121.516 15.8809H121.537V8.71878C121.537 8.51972 121.693 8.33917 121.913 8.33917H124.293C124.487 8.33917 124.671 8.51972 124.671 8.71878V22.2952C124.671 22.4963 124.487 22.6579 124.293 22.6579H123.975C123.914 22.6579 123.756 22.5975 123.719 22.5547L115.889 14.5505H115.863V22.0736C115.863 22.2748 115.708 22.4569 115.488 22.4569H113.13C112.93 22.4569 112.755 22.2748 112.755 22.0736L112.733 8.49685Z" fill="white"/>
<path d="M147.516 20.5397L148.447 18.8655C148.602 18.6046 148.984 18.644 149.12 18.7453C149.2 18.7851 150.626 19.8558 151.939 19.8558C152.727 19.8558 153.302 19.3485 153.302 18.644C153.302 17.7988 152.609 17.1503 151.259 16.6075C149.556 15.9196 147.418 14.571 147.418 12.1489C147.418 10.1518 148.94 8.13575 151.996 8.13575C154.055 8.13575 155.642 9.20489 156.238 9.64646C156.476 9.7891 156.432 10.1518 156.356 10.2906L155.342 11.8465C155.206 12.0661 154.853 12.2487 154.672 12.1075C154.491 12.0081 153.049 10.8976 151.841 10.8976C151.123 10.8976 150.589 11.3802 150.589 11.9274C150.589 12.6732 151.184 13.2365 152.745 13.883C154.297 14.5087 156.753 15.7414 156.753 18.4843C156.753 20.5602 154.99 22.6571 152.075 22.6571C149.496 22.6571 148.072 21.5695 147.614 21.1036C147.418 20.9024 147.354 20.8236 147.516 20.5397Z" fill="white"/>
<path d="M168.056 19.4308C170.235 19.4308 172.019 17.6178 172.019 15.4158C172.019 13.1986 170.235 11.3628 168.056 11.3628C165.896 11.3628 164.11 13.1986 164.11 15.4158C164.11 17.6178 165.896 19.4308 168.056 19.4308ZM168.056 8.13496C172.019 8.13496 175.193 11.3798 175.193 15.4158C175.193 19.4494 172.019 22.6587 168.056 22.6587C164.089 22.6587 160.937 19.4494 160.937 15.4158C160.937 11.3798 164.089 8.13496 168.056 8.13496Z" fill="white"/>
<path d="M182.071 11.3013H179.236C179.02 11.3013 178.858 11.1192 178.858 10.9163V8.7181C178.858 8.52082 179.02 8.33879 179.236 8.33879H188.04C188.262 8.33879 188.416 8.52082 188.416 8.7181V10.9163C188.416 11.1192 188.262 11.3013 188.04 11.3013H185.205V22.0729C185.205 22.274 185.026 22.4561 184.826 22.4561H182.45C182.252 22.4561 182.071 22.274 182.071 22.0729V11.3013Z" fill="white"/>
<path d="M198.824 17.617L197.317 14.2879H197.299L195.808 17.617H198.824ZM190.677 21.931L196.883 8.35608C196.941 8.23433 197.083 8.13653 197.216 8.13653H197.417C197.556 8.13653 197.699 8.23433 197.757 8.35608L203.96 21.931C204.08 22.192 203.921 22.4569 203.621 22.4569H201.425C201.071 22.4569 200.905 22.335 200.728 21.9515L200.015 20.3584H194.627L193.908 21.9704C193.807 22.2167 193.591 22.4569 193.197 22.4569H191.015C190.715 22.4569 190.557 22.192 190.677 21.931Z" fill="white"/>
<path d="M136.303 11.0063C137.771 11.0063 139.047 12.2181 139.22 13.738H133.06C133.328 12.1447 134.664 11.0063 136.303 11.0063ZM136.336 8.08856C132.44 8.08856 129.5 11.226 129.5 15.384C129.5 19.5418 132.454 22.6776 136.371 22.6776C138.289 22.6776 140.177 22.0292 141.414 20.9454C141.616 20.7706 141.721 20.5959 141.737 20.4138C141.756 20.1787 141.62 19.9872 141.503 19.8554L140.567 18.5574C140.428 18.3826 140.277 18.296 140.109 18.296C139.909 18.296 139.72 18.4109 139.466 18.5609C138.929 18.9197 137.82 19.5209 136.57 19.5209C134.471 19.5209 133.05 17.817 132.883 16.1787H141.821C142.21 16.1787 142.528 15.8724 142.572 15.4742C142.607 15.2186 142.637 14.7696 142.637 14.5307C142.637 10.8597 139.928 8.08856 136.336 8.08856Z" fill="white"/>
<path d="M67.8823 35.7023C68.6868 35.7023 69.3644 35.0372 69.3644 34.1827C69.3644 33.3753 68.6868 32.7578 67.8823 32.7578H66.2717V35.7023H67.8823ZM65.0708 31.7958C65.0708 31.6783 65.164 31.5708 65.2913 31.5708H67.9515C69.3879 31.5708 70.566 32.7578 70.566 34.1943C70.566 35.6667 69.3879 36.8661 67.964 36.8661H66.2717V39.6559C66.2717 39.7738 66.1672 39.8813 66.0506 39.8813H65.2913C65.164 39.8813 65.0708 39.7738 65.0708 39.6559V31.7958Z" fill="white"/>
<path d="M79.603 37.0556L78.1677 33.803H78.1095L76.6863 37.0556H79.603ZM74.3169 39.5727L77.8986 31.5824C77.9347 31.5117 78.0392 31.4521 78.0981 31.4521H78.214C78.273 31.4521 78.3774 31.5117 78.4128 31.5824L81.9717 39.5727C82.0409 39.7266 81.9478 39.8813 81.773 39.8813H81.0377C80.8982 39.8813 80.8164 39.8094 80.7697 39.7034L80.0457 38.0764H76.2303C75.9977 38.6227 75.7526 39.1571 75.5196 39.7034C75.4836 39.7866 75.3905 39.8813 75.2509 39.8813H74.5156C74.3408 39.8813 74.2466 39.7266 74.3169 39.5727Z" fill="white"/>
<path d="M86.9482 31.7958C86.9482 31.6783 87.0536 31.5708 87.1695 31.5708H87.939C88.0568 31.5708 88.1613 31.6783 88.1613 31.7958V39.6559C88.1613 39.7738 88.0568 39.8813 87.939 39.8813H87.1695C87.0536 39.8813 86.9482 39.7738 86.9482 39.6559V31.7958Z" fill="white"/>
<path d="M96.9629 38.753C98.6792 38.753 99.9274 37.4712 99.9274 35.7139C99.9274 33.9693 98.6792 32.6991 96.9629 32.6991H95.423V38.753H96.9629ZM94.2324 31.7958C94.2324 31.6783 94.3255 31.5708 94.4433 31.5708H97.1263C99.3777 31.5708 101.221 33.4345 101.221 35.7139C101.221 38.0176 99.3777 39.8813 97.1263 39.8813H94.4433C94.3255 39.8813 94.2324 39.7738 94.2324 39.6559V31.7958Z" fill="white"/>
<path d="M113.085 31.7958C113.085 31.6783 113.181 31.5708 113.308 31.5708H114.078C114.195 31.5708 114.3 31.6783 114.3 31.7958V38.7774H117.461C117.591 38.7774 117.684 38.8837 117.684 39.0024V39.6559C117.684 39.7738 117.591 39.8813 117.461 39.8813H113.308C113.181 39.8813 113.085 39.7738 113.085 39.6559V31.7958Z" fill="white"/>
<path d="M122.718 31.7958C122.718 31.6783 122.81 31.5708 122.94 31.5708H127.606C127.734 31.5708 127.827 31.6783 127.827 31.7958V32.4613C127.827 32.58 127.734 32.6871 127.606 32.6871H123.918V35.1087H127.034C127.15 35.1087 127.257 35.2151 127.257 35.3342V35.9988C127.257 36.1295 127.15 36.2243 127.034 36.2243H123.918V38.7774H127.606C127.734 38.7774 127.827 38.8837 127.827 39.0024V39.6559C127.827 39.7738 127.734 39.8813 127.606 39.8813H122.94C122.81 39.8813 122.718 39.7738 122.718 39.6559V31.7958Z" fill="white"/>
<path d="M137.588 37.0556L136.153 33.803H136.094L134.671 37.0556H137.588ZM132.301 39.5727L135.883 31.5824C135.919 31.5117 136.023 31.4521 136.083 31.4521H136.199C136.258 31.4521 136.362 31.5117 136.398 31.5824L139.955 39.5727C140.026 39.7266 139.932 39.8813 139.757 39.8813H139.022C138.882 39.8813 138.8 39.8094 138.754 39.7034L138.03 38.0764H134.215C133.981 38.6227 133.736 39.1571 133.504 39.7034C133.468 39.7866 133.375 39.8813 133.234 39.8813H132.501C132.325 39.8813 132.231 39.7266 132.301 39.5727Z" fill="white"/>
<path d="M143.345 31.8794C143.274 31.7255 143.37 31.5708 143.545 31.5708H144.373C144.466 31.5708 144.548 31.6423 144.57 31.7011L147.138 37.5776H147.208L149.775 31.7011C149.798 31.6423 149.869 31.5708 149.973 31.5708H150.801C150.976 31.5708 151.069 31.7255 151.001 31.8794L147.417 39.8697C147.383 39.9401 147.313 40 147.219 40H147.104C147.022 40 146.94 39.9401 146.904 39.8697L143.345 31.8794Z" fill="white"/>
<path d="M155.989 31.7958C155.989 31.6783 156.082 31.5708 156.211 31.5708H160.877C161.005 31.5708 161.098 31.6783 161.098 31.7958V32.4613C161.098 32.58 161.005 32.6871 160.877 32.6871H157.189V35.1087H160.305C160.421 35.1087 160.528 35.2151 160.528 35.3342V35.9988C160.528 36.1295 160.421 36.2243 160.305 36.2243H157.189V38.7774H160.877C161.005 38.7774 161.098 38.8837 161.098 39.0024V39.6559C161.098 39.7738 161.005 39.8813 160.877 39.8813H156.211C156.082 39.8813 155.989 39.7738 155.989 39.6559V31.7958Z" fill="white"/>
<path d="M41.6137 0.027504C38.96 0.027504 36.9067 1.13406 35.5215 2.21636C36.7406 3.72895 37.6101 5.62094 38.0609 7.81168C38.6815 7.31953 39.4347 7.02059 40.2323 7.02059C42.6812 7.02059 43.8 8.91833 43.8 11.0883V21.2002C43.8 21.747 44.2283 22.2299 44.812 22.2299H50.4645C51.0445 22.2299 51.4747 21.747 51.4747 21.2002V11.4134C51.4747 5.23579 48.228 0.027504 41.6137 0.027504Z" fill="#78BE21"/>
<path d="M0 1.57455C0 0.98064 0.42639 0.544811 1.01543 0.544811H3.46622C3.84093 0.544811 4.20842 0.815535 4.37069 1.1403L5.27401 3.36321C6.60715 1.95386 9.05756 -1.90735e-06 12.4702 -1.90735e-06C15.4542 -1.90735e-06 17.528 1.1403 19.4502 3.30679C20.6765 2.06096 23.1843 -1.90735e-06 26.8089 -1.90735e-06C33.4161 -1.90735e-06 36.6642 5.20799 36.6642 11.3837V21.2006C36.6642 21.7477 36.2359 22.2302 35.6526 22.2302H30.0073C29.4239 22.2302 28.9899 21.7477 28.9899 21.2006V11.0627C28.9899 8.89241 27.8727 6.99665 25.4204 6.99665C23.559 6.99665 21.8493 8.56962 21.8493 10.683V21.2006C21.8493 21.7477 21.4244 22.2302 20.8353 22.2302H15.722C15.1369 22.2302 14.7082 21.7477 14.7082 21.2006V11.0627C14.7082 8.89241 13.7497 6.99665 11.3491 6.99665C9.22021 6.99665 7.62105 8.56961 7.62105 10.7921V21.2006C7.62105 21.7477 7.1445 22.2302 6.60715 22.2302H1.01543C0.42639 22.2302 0 21.7477 0 21.2006V1.57455Z" fill="white"/>
</svg>
